#!OML:ASF H:\Terrain\Walking\May29\JustinRory\Justin.ASF
:FULLY-SPECIFIED
:DEGREES
180
root 13.6918 17.2564 -13.1103 -3.87044 11.0087 -2.81965
lowerback 7.43847 -2.03277 -2.62263
upperback 0.643128 -2.8335 2.46178
thorax -3.24971 -1.35983 4.31145
lowerneck -8.24961 -8.1214 -15.818
upperneck 17.5437 -10.1892 7.87289
head 8.02113 -5.2602 4.14878
rclavicle 4.4329e-014 1.51076e-014
rhumerus -28.2678 21.3611 -78.9044
rradius 123.528
rwrist -25.4379
rhand 2.98783 17.3501
rfingers 7.12502
rthumb 28.4489 -10.5071
lclavicle 4.4329e-014 1.51076e-014
lhumerus -17.6298 -30.4153 84.9358
lradius 110.603
lwrist 18.4789
lhand 52.9425 28.4727
lfingers 7.12502
lthumb 71.7473 17.6363
rfemur -17.4059 -2.78093 13.9499
rtibia 38.603
rfoot -13.3401 -13.5362
rtoes 3.67481
lfemur -6.1766 4.21617 -15.7727
ltibia 33.5404
lfoot -21.8845 0.684688
ltoes -15.1907
181
root 13.7049 17.2507 -13.1203 -4.08239 10.934 -2.92268
lowerback 6.70129 -2.44079 -2.8356
upperback 1.00289 -3.38339 2.461
thorax -2.40209 -1.65814 4.4256
lowerneck -7.75575 -7.66183 -16.185
upperneck 17.7288 -9.65303 8.21671
head 7.96189 -5.01858 4.40975
rclavicle 4.05521e-014 -7.7526e-015
rhumerus -26.2055 22.1393 -78.9964
rradius 120.722
rwrist -23.389
rhand 1.31968 14.4476
rfingers 7.12502
rthumb 26.8538 -13.6654
lclavicle 4.05521e-014 -7.7526e-015
lhumerus -15.5514 -30.6492 84.026
lradius 107.57
lwrist 16.4084
lhand 45.9981 27.6661
lfingers 7.12502
lthumb 67.1393 30.8229
rfemur -17.6358 -2.93924 14.506
rtibia 38.7081
rfoot -13.5836 -10.4975
rtoes -1.8763
lfemur -6.15213 4.48464 -15.6778
ltibia 33.8414
lfoot -21.9975 0.599681
ltoes -15.0377
182
root 13.7223 17.2408 -13.1361 -4.38025 10.8999 -3.2288
lowerback 6.22126 -2.56812 -2.6365
upperback 1.53905 -3.53433 2.40367
thorax -1.58197 -1.76176 4.21795
lowerneck -6.97068 -7.65295 -15.3224
upperneck 16.6567 -9.75705 7.78635
head 7.41263 -5.04954 4.1404
rclavicle 2.50531e-014 -1.70955e-014
rhumerus -23.8168 22.0743 -78.7487
rradius 117.46
rwrist -21.7252
rhand -0.575948 12.6178
rfingers 7.12502
rthumb 25.0386 -15.761
lclavicle 2.50531e-014 -1.70955e-014
lhumerus -12.7324 -31.8789 82.9403
lradius 104.294
lwrist 14.5185
lhand 36.7087 27.2455
lfingers 7.12502
lthumb 59.6154 41.4233
rfemur -17.7557 -3.18957 15.248
rtibia 38.726
rfoot -14.0039 -7.16327
rtoes -6.96107
lfemur -6.11306 4.71581 -15.3771
ltibia 34.191
lfoot -21.9974 0.506331
ltoes -15.3775
183
root 13.741 17.2455 -13.1512 -4.54757 10.9631 -3.75621
lowerback 6.30458 -2.12652 -1.795
upperback 2.07745 -2.90037 2.10594
thorax -1.18977 -1.4574 3.38219
lowerneck -7.80045 -8.4775 -13.6358
upperneck 16.339 -10.8903 7.20063
head 7.45816 -5.50817 3.51879
rclavicle 3.53588e-014 -1.98163e-014
rhumerus -21.3847 20.0757 -78.1671
rradius 113.749
rwrist -20.3582
rhand -3.40686 12.1828
rfingers 7.12502
rthumb 22.3234 -16.5476
lclavicle 3.53588e-014 -1.98163e-014
lhumerus -8.28109 -35.0877 81.4604
lradius 100.255
lwrist 12.2383
lhand 29.1879 27.1277
lfingers 7.12502
lthumb 52.9754 46.6356
rfemur -18.061 -3.4504 16.2166
rtibia 38.7373
rfoot -14.3995 -3.79656
rtoes -11.0458
lfemur -6.25574 4.54403 -14.9092
ltibia 34.5505
lfoot -22.0067 0.631234
ltoes -15.1117
184
root 13.7535 17.2502 -13.167 -4.56018 10.9555 -4.26914
lowerback 6.23402 -2.17206 -1.44407
upperback 1.88072 -2.93696 2.15187
thorax -1.3663 -1.47056 3.23731
lowerneck -7.19546 -8.43659 -13.3874
upperneck 16.6633 -10.9625 7.15937
head 7.44769 -5.54959 3.48132
rclavicle -3.93376e-014 -2.23633e-015
rhumerus -20.0209 19.9814 -78.0446
rradius 109.931
rwrist -19.7475
rhand -6.6413 11.9551
rfingers 7.12502
rthumb 19.2158 -17.1156
lclavicle -3.93376e-014 -2.23633e-015
lhumerus -5.27824 -36.9495 80.9031
lradius 95.5096
lwrist 9.9533
lhand 20.9334 28.1233
lfingers 7.12502
lthumb 45.4036 51.4621
rfemur -18.6391 -3.71298 17.2938
rtibia 38.7877
rfoot -14.6063 -0.662333
rtoes -16.2195
lfemur -6.55034 4.59991 -14.4128
ltibia 34.8398
lfoot -22.0534 0.74049
ltoes -15.7357
185
root 13.7688 17.2384 -13.1874 -4.63254 11.1579 -3.83636
lowerback 6.24001 -2.36963 -2.05219
upperback 1.96133 -3.24252 1.92172
thorax -1.24544 -1.6263 3.35877
lowerneck -7.31849 -8.6423 -13.6885
upperneck 17.3139 -11.2264 7.17607
head 7.73299 -5.69538 3.49238
rclavicle -3.42904e-015 -1.32192e-014
rhumerus -17.8439 20.1639 -78.086
rradius 105.825
rwrist -19.5208
rhand -9.59716 11.5089
rfingers 7.12502
rthumb 16.3715 -17.8201
lclavicle -3.42904e-015 -1.32192e-014
lhumerus -0.880941 -38.7096 79.2407
lradius 90.2517
lwrist 9.01692
lhand 18.5942 28.9587
lfingers 7.12502
lthumb 43.2233 53.1253
rfemur -18.9433 -4.43106 17.3184
rtibia 38.8519
rfoot -14.8678 2.59897
rtoes -20.2244
lfemur -6.58593 4.80516 -14.942
ltibia 35.0227
lfoot -22.0008 0.717282
ltoes -17.079
